<mxfile host="app.diagrams.net" agent="Mozilla/5.0 (Macintosh; Intel Mac OS X 10_15_7) AppleWebKit/537.36 (KHTML, like Gecko) Chrome/131.0.0.0 Safari/537.36" version="26.0.4">
  <diagram id="C5RBs43oDa-KdzZeNtuy" name="Page-1">
    <mxGraphModel dx="795" dy="574" grid="1" gridSize="10" guides="1" tooltips="1" connect="1" arrows="1" fold="1" page="1" pageScale="1" pageWidth="827" pageHeight="1169" math="0" shadow="0">
      <root>
        <mxCell id="WIyWlLk6GJQsqaUBKTNV-0" />
        <mxCell id="WIyWlLk6GJQsqaUBKTNV-1" parent="WIyWlLk6GJQsqaUBKTNV-0" />
        <mxCell id="gxDr0yINC1JNPGVTnlTi-20" style="edgeStyle=none;curved=1;rounded=0;orthogonalLoop=1;jettySize=auto;html=1;exitX=0.5;exitY=1;exitDx=0;exitDy=0;exitPerimeter=0;fontSize=12;startSize=8;endSize=8;entryX=0.5;entryY=0;entryDx=0;entryDy=0;" parent="WIyWlLk6GJQsqaUBKTNV-1" target="gxDr0yINC1JNPGVTnlTi-22" edge="1" source="gxDr0yINC1JNPGVTnlTi-0">
          <mxGeometry relative="1" as="geometry">
            <mxPoint x="590" y="673" as="targetPoint" />
            <mxPoint x="585" y="628" as="sourcePoint" />
          </mxGeometry>
        </mxCell>
        <mxCell id="gxDr0yINC1JNPGVTnlTi-0" value="题库" style="shape=cylinder3;whiteSpace=wrap;html=1;boundedLbl=1;backgroundOutline=1;size=15;" parent="WIyWlLk6GJQsqaUBKTNV-1" vertex="1">
          <mxGeometry x="551" y="581" width="65" height="57" as="geometry" />
        </mxCell>
        <mxCell id="gxDr0yINC1JNPGVTnlTi-2" style="edgeStyle=none;curved=1;rounded=0;orthogonalLoop=1;jettySize=auto;html=1;fontSize=12;startSize=8;endSize=8;" parent="WIyWlLk6GJQsqaUBKTNV-1" source="gxDr0yINC1JNPGVTnlTi-1" target="gxDr0yINC1JNPGVTnlTi-3" edge="1">
          <mxGeometry relative="1" as="geometry">
            <mxPoint x="300" y="400" as="targetPoint" />
          </mxGeometry>
        </mxCell>
        <mxCell id="gxDr0yINC1JNPGVTnlTi-1" value="query" style="text;html=1;align=center;verticalAlign=middle;whiteSpace=wrap;rounded=0;fontSize=16;" parent="WIyWlLk6GJQsqaUBKTNV-1" vertex="1">
          <mxGeometry x="268" y="340" width="60" height="30" as="geometry" />
        </mxCell>
        <mxCell id="gxDr0yINC1JNPGVTnlTi-7" style="edgeStyle=none;curved=1;rounded=0;orthogonalLoop=1;jettySize=auto;html=1;exitX=0.75;exitY=1;exitDx=0;exitDy=0;entryX=0.5;entryY=0;entryDx=0;entryDy=0;fontSize=12;startSize=8;endSize=8;" parent="WIyWlLk6GJQsqaUBKTNV-1" source="gxDr0yINC1JNPGVTnlTi-3" target="gxDr0yINC1JNPGVTnlTi-5" edge="1">
          <mxGeometry relative="1" as="geometry" />
        </mxCell>
        <mxCell id="gxDr0yINC1JNPGVTnlTi-8" style="edgeStyle=none;curved=1;rounded=0;orthogonalLoop=1;jettySize=auto;html=1;exitX=0.25;exitY=1;exitDx=0;exitDy=0;entryX=0.857;entryY=0.033;entryDx=0;entryDy=0;fontSize=12;startSize=8;endSize=8;entryPerimeter=0;" parent="WIyWlLk6GJQsqaUBKTNV-1" source="gxDr0yINC1JNPGVTnlTi-3" target="gxDr0yINC1JNPGVTnlTi-6" edge="1">
          <mxGeometry relative="1" as="geometry" />
        </mxCell>
        <mxCell id="gxDr0yINC1JNPGVTnlTi-3" value="OCR识别" style="rounded=1;whiteSpace=wrap;html=1;" parent="WIyWlLk6GJQsqaUBKTNV-1" vertex="1">
          <mxGeometry x="239" y="420" width="120" height="30" as="geometry" />
        </mxCell>
        <mxCell id="gxDr0yINC1JNPGVTnlTi-32" style="edgeStyle=none;curved=1;rounded=0;orthogonalLoop=1;jettySize=auto;html=1;exitX=0.5;exitY=1;exitDx=0;exitDy=0;fontSize=12;startSize=8;endSize=8;entryX=0.433;entryY=0.1;entryDx=0;entryDy=0;entryPerimeter=0;" parent="WIyWlLk6GJQsqaUBKTNV-1" source="gxDr0yINC1JNPGVTnlTi-5" target="cd73mWJb9w2KpxGiyxyg-38" edge="1">
          <mxGeometry relative="1" as="geometry">
            <mxPoint x="330" y="555" as="targetPoint" />
          </mxGeometry>
        </mxCell>
        <mxCell id="gxDr0yINC1JNPGVTnlTi-5" value="query题干" style="rounded=1;whiteSpace=wrap;html=1;" parent="WIyWlLk6GJQsqaUBKTNV-1" vertex="1">
          <mxGeometry x="288" y="500" width="80" height="30" as="geometry" />
        </mxCell>
        <mxCell id="gxDr0yINC1JNPGVTnlTi-19" style="rounded=0;orthogonalLoop=1;jettySize=auto;html=1;exitX=0.5;exitY=1;exitDx=0;exitDy=0;fontSize=12;startSize=8;endSize=8;entryX=0.25;entryY=0;entryDx=0;entryDy=0;" parent="WIyWlLk6GJQsqaUBKTNV-1" source="gxDr0yINC1JNPGVTnlTi-6" edge="1" target="cd73mWJb9w2KpxGiyxyg-40">
          <mxGeometry relative="1" as="geometry">
            <mxPoint x="240.25" y="970" as="targetPoint" />
          </mxGeometry>
        </mxCell>
        <mxCell id="gxDr0yINC1JNPGVTnlTi-6" value="query答案" style="rounded=1;whiteSpace=wrap;html=1;" parent="WIyWlLk6GJQsqaUBKTNV-1" vertex="1">
          <mxGeometry x="207" y="500" width="70" height="30" as="geometry" />
        </mxCell>
        <mxCell id="gxDr0yINC1JNPGVTnlTi-16" style="edgeStyle=none;curved=1;rounded=0;orthogonalLoop=1;jettySize=auto;html=1;entryX=0;entryY=0.5;entryDx=0;entryDy=0;entryPerimeter=0;fontSize=12;startSize=8;endSize=8;exitX=1;exitY=0.5;exitDx=0;exitDy=0;" parent="WIyWlLk6GJQsqaUBKTNV-1" source="gxDr0yINC1JNPGVTnlTi-35" target="gxDr0yINC1JNPGVTnlTi-0" edge="1">
          <mxGeometry relative="1" as="geometry" />
        </mxCell>
        <mxCell id="gxDr0yINC1JNPGVTnlTi-21" value="检索" style="edgeLabel;html=1;align=center;verticalAlign=middle;resizable=0;points=[];fontSize=12;" parent="gxDr0yINC1JNPGVTnlTi-16" vertex="1" connectable="0">
          <mxGeometry x="-0.1368" relative="1" as="geometry">
            <mxPoint as="offset" />
          </mxGeometry>
        </mxCell>
        <mxCell id="cd73mWJb9w2KpxGiyxyg-21" style="edgeStyle=orthogonalEdgeStyle;rounded=0;orthogonalLoop=1;jettySize=auto;html=1;exitX=1;exitY=0.5;exitDx=0;exitDy=0;fontSize=12;startSize=8;endSize=8;" edge="1" parent="WIyWlLk6GJQsqaUBKTNV-1" source="gxDr0yINC1JNPGVTnlTi-22" target="cd73mWJb9w2KpxGiyxyg-25">
          <mxGeometry relative="1" as="geometry">
            <mxPoint x="584" y="830" as="targetPoint" />
          </mxGeometry>
        </mxCell>
        <mxCell id="cd73mWJb9w2KpxGiyxyg-22" value="否" style="edgeLabel;html=1;align=center;verticalAlign=middle;resizable=0;points=[];fontSize=12;" vertex="1" connectable="0" parent="cd73mWJb9w2KpxGiyxyg-21">
          <mxGeometry x="0.0881" y="3" relative="1" as="geometry">
            <mxPoint as="offset" />
          </mxGeometry>
        </mxCell>
        <mxCell id="cd73mWJb9w2KpxGiyxyg-59" style="edgeStyle=orthogonalEdgeStyle;rounded=0;orthogonalLoop=1;jettySize=auto;html=1;exitX=0.5;exitY=1;exitDx=0;exitDy=0;fontSize=12;startSize=8;endSize=8;entryX=1;entryY=0.5;entryDx=0;entryDy=0;" edge="1" parent="WIyWlLk6GJQsqaUBKTNV-1" source="gxDr0yINC1JNPGVTnlTi-22" target="cd73mWJb9w2KpxGiyxyg-40">
          <mxGeometry relative="1" as="geometry">
            <mxPoint x="583.3333333333335" y="840" as="targetPoint" />
          </mxGeometry>
        </mxCell>
        <mxCell id="cd73mWJb9w2KpxGiyxyg-60" value="是" style="edgeLabel;html=1;align=center;verticalAlign=middle;resizable=0;points=[];fontSize=12;" vertex="1" connectable="0" parent="cd73mWJb9w2KpxGiyxyg-59">
          <mxGeometry x="-0.008" y="-1" relative="1" as="geometry">
            <mxPoint as="offset" />
          </mxGeometry>
        </mxCell>
        <mxCell id="gxDr0yINC1JNPGVTnlTi-22" value="是否相同题" style="rhombus;whiteSpace=wrap;html=1;" parent="WIyWlLk6GJQsqaUBKTNV-1" vertex="1">
          <mxGeometry x="548" y="681.5" width="70" height="53" as="geometry" />
        </mxCell>
        <mxCell id="gxDr0yINC1JNPGVTnlTi-27" value="数据清洗" style="rounded=1;whiteSpace=wrap;html=1;" parent="WIyWlLk6GJQsqaUBKTNV-1" vertex="1">
          <mxGeometry x="690" y="604.5" width="120" height="60" as="geometry" />
        </mxCell>
        <mxCell id="gxDr0yINC1JNPGVTnlTi-28" style="edgeStyle=orthogonalEdgeStyle;rounded=0;orthogonalLoop=1;jettySize=auto;html=1;exitX=0.5;exitY=0;exitDx=0;exitDy=0;fontSize=12;startSize=8;endSize=8;" parent="WIyWlLk6GJQsqaUBKTNV-1" source="gxDr0yINC1JNPGVTnlTi-27" target="cd73mWJb9w2KpxGiyxyg-11" edge="1">
          <mxGeometry relative="1" as="geometry">
            <mxPoint x="750" y="490" as="targetPoint" />
          </mxGeometry>
        </mxCell>
        <mxCell id="gxDr0yINC1JNPGVTnlTi-29" value="入库" style="edgeLabel;html=1;align=center;verticalAlign=middle;resizable=0;points=[];fontSize=12;" parent="gxDr0yINC1JNPGVTnlTi-28" vertex="1" connectable="0">
          <mxGeometry x="0.1412" y="2" relative="1" as="geometry">
            <mxPoint as="offset" />
          </mxGeometry>
        </mxCell>
        <mxCell id="gxDr0yINC1JNPGVTnlTi-30" value="结果回显" style="rounded=1;whiteSpace=wrap;html=1;" parent="WIyWlLk6GJQsqaUBKTNV-1" vertex="1">
          <mxGeometry x="337" y="950" width="60" height="30" as="geometry" />
        </mxCell>
        <mxCell id="cd73mWJb9w2KpxGiyxyg-3" style="edgeStyle=none;curved=1;rounded=0;orthogonalLoop=1;jettySize=auto;html=1;exitX=0.5;exitY=1;exitDx=0;exitDy=0;fontSize=12;startSize=8;endSize=8;" edge="1" parent="WIyWlLk6GJQsqaUBKTNV-1" source="gxDr0yINC1JNPGVTnlTi-35" target="gxDr0yINC1JNPGVTnlTi-36">
          <mxGeometry relative="1" as="geometry" />
        </mxCell>
        <mxCell id="gxDr0yINC1JNPGVTnlTi-35" value="学科分类(带学情)" style="rounded=1;whiteSpace=wrap;html=1;fillColor=#ffe6cc;strokeColor=#d79b00;" parent="WIyWlLk6GJQsqaUBKTNV-1" vertex="1">
          <mxGeometry x="278.5" y="600" width="109" height="16.5" as="geometry" />
        </mxCell>
        <mxCell id="cd73mWJb9w2KpxGiyxyg-4" style="edgeStyle=none;curved=1;rounded=0;orthogonalLoop=1;jettySize=auto;html=1;exitX=0.5;exitY=1;exitDx=0;exitDy=0;fontSize=12;startSize=8;endSize=8;entryX=0.5;entryY=0;entryDx=0;entryDy=0;" edge="1" parent="WIyWlLk6GJQsqaUBKTNV-1" source="gxDr0yINC1JNPGVTnlTi-36" target="cd73mWJb9w2KpxGiyxyg-6">
          <mxGeometry relative="1" as="geometry">
            <mxPoint x="330" y="680" as="targetPoint" />
          </mxGeometry>
        </mxCell>
        <mxCell id="gxDr0yINC1JNPGVTnlTi-36" value="题型分类" style="rounded=1;whiteSpace=wrap;html=1;fillColor=#ffe6cc;strokeColor=#d79b00;" parent="WIyWlLk6GJQsqaUBKTNV-1" vertex="1">
          <mxGeometry x="275" y="634.5" width="115" height="15.5" as="geometry" />
        </mxCell>
        <mxCell id="cd73mWJb9w2KpxGiyxyg-0" value="学情数据库" style="shape=cylinder3;whiteSpace=wrap;html=1;boundedLbl=1;backgroundOutline=1;size=15;" vertex="1" parent="WIyWlLk6GJQsqaUBKTNV-1">
          <mxGeometry x="550" y="486" width="60" height="60" as="geometry" />
        </mxCell>
        <mxCell id="cd73mWJb9w2KpxGiyxyg-1" value="评测" style="rounded=1;whiteSpace=wrap;html=1;" vertex="1" parent="WIyWlLk6GJQsqaUBKTNV-1">
          <mxGeometry x="530" y="320" width="70" height="20" as="geometry" />
        </mxCell>
        <mxCell id="cd73mWJb9w2KpxGiyxyg-7" style="edgeStyle=none;curved=1;rounded=0;orthogonalLoop=1;jettySize=auto;html=1;entryX=0;entryY=0.5;entryDx=0;entryDy=0;fontSize=12;startSize=8;endSize=8;" edge="1" parent="WIyWlLk6GJQsqaUBKTNV-1" source="cd73mWJb9w2KpxGiyxyg-6" target="gxDr0yINC1JNPGVTnlTi-22">
          <mxGeometry relative="1" as="geometry" />
        </mxCell>
        <mxCell id="cd73mWJb9w2KpxGiyxyg-32" value="是" style="edgeLabel;html=1;align=center;verticalAlign=middle;resizable=0;points=[];fontSize=12;" vertex="1" connectable="0" parent="cd73mWJb9w2KpxGiyxyg-7">
          <mxGeometry x="0.1397" relative="1" as="geometry">
            <mxPoint as="offset" />
          </mxGeometry>
        </mxCell>
        <mxCell id="cd73mWJb9w2KpxGiyxyg-8" value="否" style="edgeStyle=none;curved=1;rounded=0;orthogonalLoop=1;jettySize=auto;html=1;exitX=0.5;exitY=1;exitDx=0;exitDy=0;fontSize=12;startSize=8;endSize=8;entryX=0.5;entryY=0;entryDx=0;entryDy=0;" edge="1" parent="WIyWlLk6GJQsqaUBKTNV-1" source="cd73mWJb9w2KpxGiyxyg-6" target="cd73mWJb9w2KpxGiyxyg-12">
          <mxGeometry relative="1" as="geometry">
            <mxPoint x="331" y="790" as="targetPoint" />
          </mxGeometry>
        </mxCell>
        <mxCell id="cd73mWJb9w2KpxGiyxyg-16" style="edgeStyle=none;curved=1;rounded=0;orthogonalLoop=1;jettySize=auto;html=1;entryX=0.5;entryY=0;entryDx=0;entryDy=0;fontSize=12;startSize=8;endSize=8;exitX=0.5;exitY=1;exitDx=0;exitDy=0;" edge="1" parent="WIyWlLk6GJQsqaUBKTNV-1" source="cd73mWJb9w2KpxGiyxyg-6" target="cd73mWJb9w2KpxGiyxyg-14">
          <mxGeometry relative="1" as="geometry" />
        </mxCell>
        <mxCell id="cd73mWJb9w2KpxGiyxyg-26" value="否" style="edgeLabel;html=1;align=center;verticalAlign=middle;resizable=0;points=[];fontSize=12;" vertex="1" connectable="0" parent="cd73mWJb9w2KpxGiyxyg-16">
          <mxGeometry x="0.1076" y="-3" relative="1" as="geometry">
            <mxPoint as="offset" />
          </mxGeometry>
        </mxCell>
        <mxCell id="cd73mWJb9w2KpxGiyxyg-17" style="edgeStyle=none;curved=1;rounded=0;orthogonalLoop=1;jettySize=auto;html=1;entryX=0.5;entryY=0;entryDx=0;entryDy=0;fontSize=12;startSize=8;endSize=8;exitX=0.5;exitY=1;exitDx=0;exitDy=0;" edge="1" parent="WIyWlLk6GJQsqaUBKTNV-1" source="cd73mWJb9w2KpxGiyxyg-6" target="cd73mWJb9w2KpxGiyxyg-15">
          <mxGeometry relative="1" as="geometry" />
        </mxCell>
        <mxCell id="cd73mWJb9w2KpxGiyxyg-27" value="否" style="edgeLabel;html=1;align=center;verticalAlign=middle;resizable=0;points=[];fontSize=12;" vertex="1" connectable="0" parent="cd73mWJb9w2KpxGiyxyg-17">
          <mxGeometry x="0.1266" y="1" relative="1" as="geometry">
            <mxPoint as="offset" />
          </mxGeometry>
        </mxCell>
        <mxCell id="cd73mWJb9w2KpxGiyxyg-29" style="edgeStyle=none;curved=1;rounded=0;orthogonalLoop=1;jettySize=auto;html=1;exitX=0.5;exitY=1;exitDx=0;exitDy=0;fontSize=12;startSize=8;endSize=8;entryX=0.5;entryY=0;entryDx=0;entryDy=0;" edge="1" parent="WIyWlLk6GJQsqaUBKTNV-1" source="cd73mWJb9w2KpxGiyxyg-6" target="cd73mWJb9w2KpxGiyxyg-31">
          <mxGeometry relative="1" as="geometry">
            <mxPoint x="510" y="810" as="targetPoint" />
          </mxGeometry>
        </mxCell>
        <mxCell id="cd73mWJb9w2KpxGiyxyg-30" value="否" style="edgeLabel;html=1;align=center;verticalAlign=middle;resizable=0;points=[];fontSize=12;" vertex="1" connectable="0" parent="cd73mWJb9w2KpxGiyxyg-29">
          <mxGeometry x="0.0308" y="1" relative="1" as="geometry">
            <mxPoint as="offset" />
          </mxGeometry>
        </mxCell>
        <mxCell id="cd73mWJb9w2KpxGiyxyg-6" value="是否常规批改题" style="rhombus;whiteSpace=wrap;html=1;" vertex="1" parent="WIyWlLk6GJQsqaUBKTNV-1">
          <mxGeometry x="294" y="680" width="79" height="56" as="geometry" />
        </mxCell>
        <mxCell id="cd73mWJb9w2KpxGiyxyg-11" value="回流题库" style="shape=cylinder3;whiteSpace=wrap;html=1;boundedLbl=1;backgroundOutline=1;size=15;" vertex="1" parent="WIyWlLk6GJQsqaUBKTNV-1">
          <mxGeometry x="720" y="475" width="60" height="80" as="geometry" />
        </mxCell>
        <mxCell id="cd73mWJb9w2KpxGiyxyg-33" style="edgeStyle=none;curved=1;rounded=0;orthogonalLoop=1;jettySize=auto;html=1;exitX=0.5;exitY=1;exitDx=0;exitDy=0;fontSize=12;startSize=8;endSize=8;entryX=0.383;entryY=0.025;entryDx=0;entryDy=0;entryPerimeter=0;" edge="1" parent="WIyWlLk6GJQsqaUBKTNV-1" source="cd73mWJb9w2KpxGiyxyg-12" target="cd73mWJb9w2KpxGiyxyg-28">
          <mxGeometry relative="1" as="geometry" />
        </mxCell>
        <mxCell id="cd73mWJb9w2KpxGiyxyg-12" value="作文题" style="rounded=1;whiteSpace=wrap;html=1;fillColor=#ffe6cc;strokeColor=#d79b00;" vertex="1" parent="WIyWlLk6GJQsqaUBKTNV-1">
          <mxGeometry x="250" y="810" width="69" height="24" as="geometry" />
        </mxCell>
        <mxCell id="cd73mWJb9w2KpxGiyxyg-34" style="edgeStyle=none;curved=1;rounded=0;orthogonalLoop=1;jettySize=auto;html=1;exitX=0.5;exitY=1;exitDx=0;exitDy=0;fontSize=12;startSize=8;endSize=8;entryX=0.423;entryY=0.074;entryDx=0;entryDy=0;entryPerimeter=0;" edge="1" parent="WIyWlLk6GJQsqaUBKTNV-1" source="cd73mWJb9w2KpxGiyxyg-14" target="cd73mWJb9w2KpxGiyxyg-28">
          <mxGeometry relative="1" as="geometry">
            <mxPoint x="370" y="870" as="targetPoint" />
          </mxGeometry>
        </mxCell>
        <mxCell id="cd73mWJb9w2KpxGiyxyg-14" value="证明题" style="rounded=1;whiteSpace=wrap;html=1;fillColor=#ffe6cc;strokeColor=#d79b00;" vertex="1" parent="WIyWlLk6GJQsqaUBKTNV-1">
          <mxGeometry x="327" y="808" width="70" height="26" as="geometry" />
        </mxCell>
        <mxCell id="cd73mWJb9w2KpxGiyxyg-15" value="开放题" style="rounded=1;whiteSpace=wrap;html=1;fillColor=#ffe6cc;strokeColor=#d79b00;" vertex="1" parent="WIyWlLk6GJQsqaUBKTNV-1">
          <mxGeometry x="410" y="810" width="70" height="20" as="geometry" />
        </mxCell>
        <mxCell id="cd73mWJb9w2KpxGiyxyg-18" style="edgeStyle=none;curved=1;rounded=0;orthogonalLoop=1;jettySize=auto;html=1;exitX=1;exitY=0.5;exitDx=0;exitDy=0;entryX=0;entryY=0.5;entryDx=0;entryDy=0;entryPerimeter=0;fontSize=12;startSize=8;endSize=8;" edge="1" parent="WIyWlLk6GJQsqaUBKTNV-1" source="gxDr0yINC1JNPGVTnlTi-5" target="cd73mWJb9w2KpxGiyxyg-0">
          <mxGeometry relative="1" as="geometry" />
        </mxCell>
        <mxCell id="cd73mWJb9w2KpxGiyxyg-19" value="检索" style="edgeLabel;html=1;align=center;verticalAlign=middle;resizable=0;points=[];fontSize=12;" vertex="1" connectable="0" parent="cd73mWJb9w2KpxGiyxyg-18">
          <mxGeometry x="-0.1798" y="-2" relative="1" as="geometry">
            <mxPoint as="offset" />
          </mxGeometry>
        </mxCell>
        <mxCell id="cd73mWJb9w2KpxGiyxyg-42" style="edgeStyle=orthogonalEdgeStyle;rounded=0;orthogonalLoop=1;jettySize=auto;html=1;fontSize=12;startSize=8;endSize=8;exitX=0.5;exitY=1;exitDx=0;exitDy=0;entryX=1;entryY=0.5;entryDx=0;entryDy=0;" edge="1" parent="WIyWlLk6GJQsqaUBKTNV-1" target="cd73mWJb9w2KpxGiyxyg-40">
          <mxGeometry relative="1" as="geometry">
            <mxPoint x="642" y="873" as="sourcePoint" />
            <mxPoint x="350" y="1034" as="targetPoint" />
            <Array as="points">
              <mxPoint x="642" y="1026" />
              <mxPoint x="320" y="1026" />
              <mxPoint x="320" y="1024" />
            </Array>
          </mxGeometry>
        </mxCell>
        <mxCell id="cd73mWJb9w2KpxGiyxyg-25" value="解题模型" style="rounded=1;whiteSpace=wrap;html=1;" vertex="1" parent="WIyWlLk6GJQsqaUBKTNV-1">
          <mxGeometry x="614" y="830" width="56" height="30" as="geometry" />
        </mxCell>
        <mxCell id="cd73mWJb9w2KpxGiyxyg-28" value="不同的批改模型" style="rounded=1;whiteSpace=wrap;html=1;fillColor=#ffe6cc;strokeColor=#d79b00;" vertex="1" parent="WIyWlLk6GJQsqaUBKTNV-1">
          <mxGeometry x="324" y="877" width="109" height="34" as="geometry" />
        </mxCell>
        <mxCell id="cd73mWJb9w2KpxGiyxyg-31" value="画图题" style="rounded=1;whiteSpace=wrap;html=1;fillColor=#ffe6cc;strokeColor=#d79b00;" vertex="1" parent="WIyWlLk6GJQsqaUBKTNV-1">
          <mxGeometry x="490" y="810" width="70" height="26" as="geometry" />
        </mxCell>
        <mxCell id="cd73mWJb9w2KpxGiyxyg-35" style="edgeStyle=none;curved=1;rounded=0;orthogonalLoop=1;jettySize=auto;html=1;entryX=0.5;entryY=0;entryDx=0;entryDy=0;fontSize=12;startSize=8;endSize=8;" edge="1" parent="WIyWlLk6GJQsqaUBKTNV-1" source="cd73mWJb9w2KpxGiyxyg-15" target="cd73mWJb9w2KpxGiyxyg-28">
          <mxGeometry relative="1" as="geometry" />
        </mxCell>
        <mxCell id="cd73mWJb9w2KpxGiyxyg-36" style="edgeStyle=none;curved=1;rounded=0;orthogonalLoop=1;jettySize=auto;html=1;entryX=0.5;entryY=0;entryDx=0;entryDy=0;fontSize=12;startSize=8;endSize=8;" edge="1" parent="WIyWlLk6GJQsqaUBKTNV-1" source="cd73mWJb9w2KpxGiyxyg-31" target="cd73mWJb9w2KpxGiyxyg-28">
          <mxGeometry relative="1" as="geometry" />
        </mxCell>
        <mxCell id="cd73mWJb9w2KpxGiyxyg-54" style="edgeStyle=none;curved=1;rounded=0;orthogonalLoop=1;jettySize=auto;html=1;fontSize=12;startSize=8;endSize=8;" edge="1" parent="WIyWlLk6GJQsqaUBKTNV-1" source="cd73mWJb9w2KpxGiyxyg-38" target="gxDr0yINC1JNPGVTnlTi-35">
          <mxGeometry relative="1" as="geometry" />
        </mxCell>
        <mxCell id="cd73mWJb9w2KpxGiyxyg-38" value="学段分类(带学段)" style="rounded=1;whiteSpace=wrap;html=1;fillColor=#ffe6cc;strokeColor=#d79b00;" vertex="1" parent="WIyWlLk6GJQsqaUBKTNV-1">
          <mxGeometry x="280" y="555" width="109" height="20" as="geometry" />
        </mxCell>
        <mxCell id="cd73mWJb9w2KpxGiyxyg-63" style="edgeStyle=none;curved=1;rounded=0;orthogonalLoop=1;jettySize=auto;html=1;fontSize=12;startSize=8;endSize=8;" edge="1" parent="WIyWlLk6GJQsqaUBKTNV-1" source="cd73mWJb9w2KpxGiyxyg-40" target="cd73mWJb9w2KpxGiyxyg-62">
          <mxGeometry relative="1" as="geometry" />
        </mxCell>
        <mxCell id="cd73mWJb9w2KpxGiyxyg-40" value="答案抽取&amp;amp;比对" style="rounded=1;whiteSpace=wrap;html=1;" vertex="1" parent="WIyWlLk6GJQsqaUBKTNV-1">
          <mxGeometry x="216.5" y="1009" width="109" height="30" as="geometry" />
        </mxCell>
        <mxCell id="cd73mWJb9w2KpxGiyxyg-41" style="edgeStyle=orthogonalEdgeStyle;rounded=0;orthogonalLoop=1;jettySize=auto;html=1;fontSize=12;startSize=8;endSize=8;exitX=0.5;exitY=1;exitDx=0;exitDy=0;entryX=0.75;entryY=0;entryDx=0;entryDy=0;" edge="1" parent="WIyWlLk6GJQsqaUBKTNV-1" source="cd73mWJb9w2KpxGiyxyg-28" target="gxDr0yINC1JNPGVTnlTi-30">
          <mxGeometry relative="1" as="geometry">
            <mxPoint x="368" y="923" as="sourcePoint" />
            <mxPoint x="220" y="940" as="targetPoint" />
          </mxGeometry>
        </mxCell>
        <mxCell id="cd73mWJb9w2KpxGiyxyg-62" value="结果回显" style="rounded=1;whiteSpace=wrap;html=1;" vertex="1" parent="WIyWlLk6GJQsqaUBKTNV-1">
          <mxGeometry x="239" y="1080" width="60" height="30" as="geometry" />
        </mxCell>
        <mxCell id="cd73mWJb9w2KpxGiyxyg-64" style="edgeStyle=orthogonalEdgeStyle;rounded=0;orthogonalLoop=1;jettySize=auto;html=1;entryX=0.559;entryY=0.983;entryDx=0;entryDy=0;entryPerimeter=0;fontSize=12;startSize=8;endSize=8;" edge="1" parent="WIyWlLk6GJQsqaUBKTNV-1" source="cd73mWJb9w2KpxGiyxyg-25" target="gxDr0yINC1JNPGVTnlTi-27">
          <mxGeometry relative="1" as="geometry" />
        </mxCell>
      </root>
    </mxGraphModel>
  </diagram>
</mxfile>
